<?xml version="1.0" encoding="utf-8"?>
<!-- Generator: Adobe Illustrator 19.0.0, SVG Export Plug-In . SVG Version: 6.00 Build 0)  -->
<svg version="1.1" id="Layer_1" xmlns="http://www.w3.org/2000/svg" xmlns:xlink="http://www.w3.org/1999/xlink" x="0px" y="0px"
	 width="200.6px" height="35px" viewBox="0 0 200.6 35" style="enable-background:new 0 0 200.6 35;" xml:space="preserve">
<style type="text/css">
	.st0{fill:#f18700;}
	.st1{fill:#FFFFFF;}
	.st2{fill:#4D4D4D;}
</style>
<g id="XMLID_139_">
	<g id="XMLID_1045_">
		<g id="XMLID_1049_">
			<path id="XMLID_1050_" class="st0" d="M34.1,22.8L22.8,34.1c-0.6,0.5-1.3,0.9-2.1,0.9c-0.8,0-1.5-0.3-2.1-0.9L2.1,17.6
				c-1.2-1.2-2.1-3.4-2.1-5V3c0-1.6,1.3-3,3-3h9.6c1.6,0,3.9,0.9,5.1,2.1l16.5,16.5c0.5,0.6,0.9,1.3,0.9,2.1
				C35,21.5,34.7,22.2,34.1,22.8z M7.4,4.4c-1.6,0-3,1.3-3,3s1.3,3,3,3s3-1.3,3-3S9,4.4,7.4,4.4z"/>
		</g>
		<g id="XMLID_1046_">
			<path id="XMLID_1047_" class="st1" d="M22.5,16.6c0.4,0.4,0.6,0.7,0.8,1.2c0.2,0.4,0.2,0.8,0.2,1.3c0,0.4-0.1,0.9-0.3,1.3
				s-0.5,0.9-0.9,1.3l1.2,1.5c0,0,0,0.1,0.1,0.1c0,0,0,0.1,0,0.1c0,0.1-0.1,0.1-0.1,0.2c-0.1,0.1-0.1,0.2-0.2,0.3
				c-0.1,0.1-0.2,0.2-0.3,0.3c-0.1,0.1-0.2,0.1-0.2,0.1c-0.1,0-0.1,0-0.2,0c-0.1,0-0.1-0.1-0.1-0.1l-1.1-1.4
				c-0.2,0.2-0.4,0.3-0.6,0.4c-0.2,0.1-0.4,0.2-0.6,0.3c-0.2,0.1-0.3,0.1-0.5,0.2c-0.1,0-0.3,0.1-0.4,0.1c-0.1,0-0.2,0-0.3-0.1
				c-0.1-0.1-0.3-0.2-0.4-0.4c-0.1-0.1-0.3-0.3-0.3-0.4c-0.1-0.1-0.1-0.2-0.2-0.3s0-0.1,0-0.2c0,0,0-0.1,0.1-0.1
				c0.1-0.1,0.2-0.1,0.3-0.1c0.2,0,0.4-0.1,0.6-0.2c0.2-0.1,0.5-0.2,0.8-0.4c0.3-0.2,0.6-0.4,0.9-0.7c0.5-0.5,0.8-0.9,0.8-1.4
				c0.1-0.4-0.1-0.8-0.4-1.1c-0.2-0.2-0.4-0.3-0.6-0.3c-0.2,0-0.5,0-0.8,0.1c-0.3,0.1-0.5,0.2-0.8,0.3c-0.3,0.1-0.6,0.3-0.9,0.4
				c-0.3,0.1-0.6,0.3-1,0.4c-0.3,0.1-0.7,0.1-1,0.1s-0.7-0.1-1-0.2c-0.3-0.1-0.7-0.4-1-0.7c-0.3-0.3-0.5-0.6-0.7-1
				c-0.2-0.4-0.2-0.7-0.2-1.1c0-0.4,0.1-0.8,0.3-1.2c0.2-0.4,0.4-0.8,0.7-1.2l-1.1-1.4c0,0,0-0.1-0.1-0.1c0,0,0-0.1,0-0.1
				c0-0.1,0.1-0.1,0.1-0.2c0.1-0.1,0.1-0.2,0.3-0.3c0.1-0.1,0.2-0.2,0.3-0.3c0.1-0.1,0.2-0.1,0.2-0.1c0.1,0,0.1,0,0.2,0
				c0.1,0,0.1,0.1,0.1,0.1l1.1,1.3c0.1-0.1,0.3-0.2,0.4-0.3c0.2-0.1,0.3-0.2,0.5-0.3c0.2-0.1,0.3-0.1,0.4-0.2c0.1,0,0.2-0.1,0.3-0.1
				c0.1,0,0.1,0,0.2,0c0.1,0,0.1,0,0.2,0.1c0.1,0,0.1,0.1,0.2,0.2c0.1,0.1,0.2,0.2,0.3,0.2c0.1,0.1,0.2,0.2,0.3,0.3
				c0.1,0.1,0.1,0.2,0.2,0.2c0,0.1,0,0.1,0,0.1c0,0,0,0.1-0.1,0.1c-0.1,0.1-0.2,0.1-0.3,0.2c-0.2,0.1-0.3,0.1-0.6,0.2
				c-0.2,0.1-0.4,0.2-0.7,0.4c-0.3,0.1-0.5,0.3-0.7,0.6c-0.2,0.2-0.4,0.4-0.5,0.6c-0.1,0.2-0.2,0.4-0.2,0.6c0,0.2,0,0.3,0.1,0.5
				c0.1,0.2,0.1,0.3,0.3,0.4c0.2,0.2,0.4,0.3,0.7,0.3c0.2,0,0.5,0,0.8-0.1c0.3-0.1,0.6-0.2,0.9-0.3c0.3-0.1,0.6-0.3,0.9-0.4
				c0.3-0.1,0.6-0.3,1-0.4c0.3-0.1,0.7-0.2,1-0.2c0.3,0,0.7,0.1,1,0.2C21.8,16,22.2,16.3,22.5,16.6z"/>
		</g>
	</g>
	<g id="XMLID_991_">
		<g id="XMLID_1025_">
			<path id="XMLID_1042_" class="st2" d="M50.3,3.6c0,0.3-0.1,0.6-0.2,0.9s-0.3,0.5-0.4,0.6c-0.2,0.2-0.4,0.3-0.7,0.4
				c-0.3,0.1-0.6,0.1-1,0.1h-0.7V8c0,0,0,0,0,0.1c0,0,0,0-0.1,0c0,0-0.1,0-0.1,0c-0.1,0-0.1,0-0.2,0s-0.1,0-0.2,0
				c-0.1,0-0.1,0-0.1,0c0,0-0.1,0-0.1,0s0,0,0-0.1V2.1c0-0.1,0-0.2,0.1-0.3s0.1-0.1,0.2-0.1h1.4c0.1,0,0.3,0,0.4,0
				c0.1,0,0.3,0,0.4,0.1c0.2,0,0.3,0.1,0.5,0.2c0.2,0.1,0.3,0.2,0.5,0.4s0.2,0.3,0.3,0.5C50.3,3.2,50.3,3.4,50.3,3.6z M49.5,3.7
				c0-0.3,0-0.5-0.1-0.6c-0.1-0.2-0.2-0.3-0.4-0.4c-0.1-0.1-0.3-0.1-0.4-0.2c-0.2,0-0.3,0-0.4,0h-0.8V5H48c0.3,0,0.5,0,0.6-0.1
				c0.2-0.1,0.3-0.2,0.4-0.3c0.1-0.1,0.2-0.3,0.3-0.4C49.4,4,49.5,3.9,49.5,3.7z"/>
			<path id="XMLID_1040_" class="st2" d="M56.9,5.7c0,0.4-0.1,0.7-0.2,1c-0.1,0.3-0.3,0.6-0.5,0.8S55.8,7.9,55.5,8s-0.6,0.2-1,0.2
				c-0.3,0-0.7-0.1-1-0.2S53,7.8,52.7,7.6c-0.2-0.2-0.4-0.4-0.5-0.7s-0.2-0.6-0.2-1V1.9c0,0,0,0,0-0.1s0,0,0.1,0c0,0,0.1,0,0.1,0
				c0.1,0,0.1,0,0.2,0c0.1,0,0.1,0,0.2,0c0.1,0,0.1,0,0.1,0c0,0,0.1,0,0.1,0s0,0,0,0.1v3.8c0,0.3,0,0.5,0.1,0.8s0.2,0.4,0.3,0.5
				c0.1,0.1,0.3,0.3,0.5,0.3c0.2,0.1,0.4,0.1,0.6,0.1c0.2,0,0.5,0,0.7-0.1c0.2-0.1,0.4-0.2,0.5-0.3c0.1-0.1,0.2-0.3,0.3-0.5
				C56,6.3,56,6,56,5.8V1.9c0,0,0,0,0-0.1s0,0,0.1,0c0,0,0.1,0,0.1,0c0.1,0,0.1,0,0.2,0c0.1,0,0.1,0,0.2,0c0.1,0,0.1,0,0.1,0
				c0,0,0.1,0,0.1,0c0,0,0,0,0,0.1V5.7z"/>
			<path id="XMLID_1038_" class="st2" d="M63.8,7.7c0,0.1,0,0.1,0,0.2c0,0,0,0.1-0.1,0.1c0,0-0.1,0.1-0.1,0.1s-0.1,0-0.1,0h-0.3
				c-0.1,0-0.2,0-0.2,0c-0.1,0-0.1-0.1-0.2-0.1c-0.1,0-0.1-0.1-0.2-0.2c-0.1-0.1-0.1-0.2-0.2-0.3l-1.9-3.6c-0.1-0.2-0.2-0.4-0.3-0.6
				C60,3.1,60,2.9,59.9,2.7h0c0,0.2,0,0.5,0,0.7s0,0.5,0,0.7V8c0,0,0,0,0,0.1c0,0,0,0-0.1,0c0,0-0.1,0-0.1,0c-0.1,0-0.1,0-0.2,0
				c-0.1,0-0.2,0-0.2,0c-0.1,0-0.1,0-0.1,0c0,0-0.1,0-0.1,0c0,0,0,0,0-0.1V2.1c0-0.1,0-0.2,0.1-0.3c0.1-0.1,0.2-0.1,0.2-0.1h0.4
				c0.1,0,0.2,0,0.2,0s0.1,0,0.2,0.1c0.1,0,0.1,0.1,0.2,0.2c0,0.1,0.1,0.2,0.2,0.3L62,5.1c0.1,0.2,0.2,0.3,0.3,0.5
				c0.1,0.2,0.2,0.3,0.2,0.5c0.1,0.2,0.2,0.3,0.2,0.5c0.1,0.2,0.2,0.3,0.2,0.5h0c0-0.3,0-0.5,0-0.8c0-0.3,0-0.5,0-0.8V1.9
				c0,0,0,0,0-0.1s0,0,0.1-0.1c0,0,0.1,0,0.1,0c0.1,0,0.1,0,0.2,0c0.1,0,0.1,0,0.2,0c0.1,0,0.1,0,0.1,0c0,0,0.1,0,0.1,0.1s0,0,0,0.1
				V7.7z"/>
			<path id="XMLID_1036_" class="st2" d="M70,2.1c0,0.1,0,0.1,0,0.2s0,0.1,0,0.1c0,0,0,0-0.1,0.1c0,0,0,0-0.1,0H68V8c0,0,0,0,0,0.1
				s0,0-0.1,0c0,0-0.1,0-0.1,0c-0.1,0-0.1,0-0.2,0c-0.1,0-0.1,0-0.2,0c-0.1,0-0.1,0-0.1,0c0,0-0.1,0-0.1,0s0,0,0-0.1V2.5h-1.8
				c0,0,0,0-0.1,0c0,0,0,0-0.1-0.1c0,0,0-0.1,0-0.1c0,0,0-0.1,0-0.2s0-0.1,0-0.2c0,0,0-0.1,0-0.1s0-0.1,0.1-0.1c0,0,0,0,0.1,0h4.4
				c0,0,0,0,0.1,0c0,0,0,0,0.1,0.1c0,0,0,0.1,0,0.1C69.9,2,70,2.1,70,2.1z"/>
			<path id="XMLID_1033_" class="st2" d="M76.4,4.9c0,0.5-0.1,1-0.2,1.4s-0.3,0.8-0.5,1c-0.2,0.3-0.5,0.5-0.9,0.7
				c-0.4,0.2-0.8,0.2-1.3,0.2c-0.5,0-0.9-0.1-1.2-0.2c-0.3-0.1-0.6-0.3-0.9-0.6c-0.2-0.3-0.4-0.6-0.5-1S70.7,5.5,70.7,5
				c0-0.5,0.1-1,0.2-1.4s0.3-0.8,0.5-1c0.2-0.3,0.5-0.5,0.9-0.7c0.4-0.2,0.8-0.2,1.3-0.2c0.5,0,0.9,0.1,1.2,0.2s0.6,0.3,0.9,0.6
				c0.2,0.3,0.4,0.6,0.5,1C76.3,3.9,76.4,4.3,76.4,4.9z M75.5,4.9c0-0.4,0-0.7-0.1-1c-0.1-0.3-0.2-0.6-0.3-0.8
				c-0.1-0.2-0.3-0.4-0.6-0.5s-0.6-0.2-0.9-0.2c-0.4,0-0.7,0.1-0.9,0.2S72.2,2.9,72,3.1s-0.3,0.5-0.3,0.8c-0.1,0.3-0.1,0.6-0.1,1
				c0,0.4,0,0.7,0.1,1s0.2,0.6,0.3,0.8c0.1,0.2,0.3,0.4,0.6,0.5c0.2,0.1,0.6,0.2,0.9,0.2c0.4,0,0.7-0.1,0.9-0.2
				c0.3-0.1,0.5-0.3,0.6-0.6c0.2-0.2,0.3-0.5,0.3-0.8C75.5,5.6,75.5,5.3,75.5,4.9z"/>
			<path id="XMLID_1031_" class="st2" d="M81.6,6.3c0,0.3-0.1,0.6-0.2,0.8c-0.1,0.2-0.3,0.4-0.5,0.6c-0.2,0.2-0.4,0.3-0.7,0.4
				c-0.3,0.1-0.5,0.1-0.8,0.1c-0.2,0-0.4,0-0.6-0.1c-0.2,0-0.3-0.1-0.5-0.1c-0.1-0.1-0.3-0.1-0.4-0.2c-0.1-0.1-0.2-0.1-0.2-0.1
				c0,0-0.1-0.1-0.1-0.1c0-0.1,0-0.1,0-0.2c0-0.1,0-0.1,0-0.2c0,0,0-0.1,0-0.1s0,0,0-0.1c0,0,0,0,0.1,0c0,0,0.1,0,0.2,0.1
				c0.1,0.1,0.2,0.1,0.3,0.2s0.3,0.1,0.5,0.2c0.2,0.1,0.4,0.1,0.6,0.1c0.2,0,0.3,0,0.5-0.1c0.2,0,0.3-0.1,0.4-0.2
				c0.1-0.1,0.2-0.2,0.3-0.3s0.1-0.3,0.1-0.4c0-0.2,0-0.3-0.1-0.5s-0.2-0.2-0.3-0.3c-0.1-0.1-0.3-0.2-0.5-0.3
				c-0.2-0.1-0.3-0.2-0.5-0.2c-0.2-0.1-0.4-0.2-0.5-0.3s-0.3-0.2-0.5-0.4S78.1,4.2,78,4c-0.1-0.2-0.1-0.4-0.1-0.7
				c0-0.3,0-0.5,0.1-0.7c0.1-0.2,0.2-0.4,0.4-0.5C78.6,2,78.8,1.9,79,1.8c0.2-0.1,0.5-0.1,0.8-0.1c0.1,0,0.3,0,0.4,0
				c0.1,0,0.3,0.1,0.4,0.1c0.1,0,0.2,0.1,0.3,0.1C81,2,81.1,2,81.1,2.1c0,0,0.1,0.1,0.1,0.1c0,0,0,0,0,0.1c0,0,0,0.1,0,0.1
				s0,0.1,0,0.2c0,0.1,0,0.1,0,0.2c0,0,0,0.1,0,0.1c0,0,0,0.1,0,0.1c0,0,0,0-0.1,0c0,0-0.1,0-0.2-0.1c-0.1,0-0.2-0.1-0.3-0.2
				c-0.1-0.1-0.2-0.1-0.4-0.2c-0.2,0-0.3-0.1-0.5-0.1c-0.2,0-0.3,0-0.5,0.1c-0.1,0-0.2,0.1-0.3,0.2s-0.1,0.2-0.2,0.3
				s-0.1,0.2-0.1,0.3c0,0.2,0,0.3,0.1,0.5S79,3.9,79.2,4c0.1,0.1,0.3,0.2,0.5,0.3s0.3,0.2,0.5,0.2c0.2,0.1,0.4,0.2,0.5,0.3
				C80.9,4.9,81,5,81.1,5.2c0.1,0.1,0.2,0.3,0.3,0.5C81.6,5.8,81.6,6.1,81.6,6.3z"/>
			<path id="XMLID_1028_" class="st2" d="M90.9,4.8c0,0.5-0.1,1-0.2,1.4c-0.1,0.4-0.3,0.7-0.6,1c-0.3,0.3-0.6,0.5-1,0.6
				s-0.9,0.2-1.4,0.2h-1.3c-0.1,0-0.1,0-0.2-0.1c-0.1,0-0.1-0.1-0.1-0.3V2.1c0-0.1,0-0.2,0.1-0.3c0.1-0.1,0.1-0.1,0.2-0.1h1.4
				c0.5,0,1,0.1,1.4,0.2c0.4,0.1,0.7,0.3,1,0.6c0.3,0.3,0.4,0.6,0.6,1C90.8,3.9,90.9,4.4,90.9,4.8z M90,4.9c0-0.3,0-0.7-0.1-1
				c-0.1-0.3-0.2-0.5-0.4-0.8c-0.2-0.2-0.4-0.4-0.7-0.5s-0.6-0.2-1.1-0.2h-0.9v4.9h0.9c0.4,0,0.7-0.1,1-0.2s0.5-0.3,0.7-0.5
				s0.3-0.5,0.4-0.8C90,5.7,90,5.3,90,4.9z"/>
			<path id="XMLID_1026_" class="st2" d="M96.2,7.7c0,0.1,0,0.1,0,0.2c0,0,0,0.1,0,0.1s0,0.1-0.1,0.1c0,0,0,0-0.1,0h-3
				c-0.1,0-0.1,0-0.2-0.1c-0.1,0-0.1-0.1-0.1-0.3V2.1c0-0.1,0-0.2,0.1-0.3c0.1-0.1,0.1-0.1,0.2-0.1h3c0,0,0,0,0.1,0c0,0,0,0,0.1,0.1
				s0,0.1,0,0.1c0,0,0,0.1,0,0.2c0,0.1,0,0.1,0,0.2c0,0,0,0.1,0,0.1c0,0,0,0-0.1,0.1c0,0,0,0-0.1,0h-2.5v2h2.1c0,0,0,0,0.1,0
				c0,0,0,0,0.1,0.1c0,0,0,0.1,0,0.1s0,0.1,0,0.2c0,0.1,0,0.1,0,0.2s0,0.1,0,0.1c0,0,0,0-0.1,0.1c0,0,0,0-0.1,0h-2.1v2.3h2.5
				c0,0,0,0,0.1,0c0,0,0,0,0.1,0.1c0,0,0,0.1,0,0.1C96.2,7.6,96.2,7.7,96.2,7.7z"/>
		</g>
		<g id="XMLID_992_">
			<path id="XMLID_1022_" class="st0" d="M46.1,13.5h4.2c2.6,0,3.9,1.5,3.9,3.5c0,2.2-1.6,3.7-4,3.7h-1.4v4.5h-2.7V13.5z M50.2,18.3
				c0.8,0,1.3-0.6,1.3-1.2c0-0.6-0.5-1.2-1.3-1.2h-1.4v2.4H50.2z"/>
			<path id="XMLID_1019_" class="st0" d="M58.1,13.5h2.6L65,25.1h-2.7l-0.8-2.3h-4.1l-0.8,2.3h-2.7L58.1,13.5z M60.7,20.5l-1.3-3.7
				l-1.3,3.7H60.7z"/>
			<path id="XMLID_1017_" class="st0" d="M65.4,19.3c0-3.5,2.3-6,5.9-6c2.3,0,4,1,4.9,2.6l-2.3,1.3c-0.5-0.9-1.4-1.5-2.7-1.5
				c-1.7,0-3.1,1.4-3.1,3.6c0,2.4,1.5,3.6,3.1,3.6c1.5,0,2.6-0.9,2.7-2.1h-2.6v-2.3h5.3v6.5h-1.9L74.3,24c-0.7,0.8-2,1.3-3.3,1.3
				C67.7,25.3,65.4,22.8,65.4,19.3z"/>
			<path id="XMLID_1014_" class="st0" d="M78.3,19.3c0-3.4,2.4-6,6-6c3.6,0,6,2.6,6,6c0,3.4-2.5,6-6,6
				C80.8,25.3,78.3,22.7,78.3,19.3z M87.5,19.3c0-2.3-1.6-3.6-3.2-3.6c-1.7,0-3.3,1.3-3.3,3.6s1.6,3.6,3.3,3.6
				C86,23,87.5,21.6,87.5,19.3z"/>
			<path id="XMLID_1012_" class="st0" d="M96.4,13.5h7.8v2.4h-5.1v2h4.7v2.4h-4.7v2.5h5.1v2.4h-7.8V13.5z"/>
			<path id="XMLID_1010_" class="st0" d="M106.4,13.5h3l4,7.2v-7.2h2.7v11.6h-3l-4.1-7v7h-2.7V13.5z"/>
			<path id="XMLID_1008_" class="st0" d="M122.7,13.5h7.8v2.4h-5.1v2h4.7v2.4h-4.7v2.5h5.1v2.4h-7.8V13.5z"/>
			<path id="XMLID_1006_" class="st0" d="M132.6,13.5h7.7v2.4h-5V18h4.6v2.4h-4.6v4.7h-2.7V13.5z"/>
			<path id="XMLID_1004_" class="st0" d="M142.3,13.5h7.8v2.4H145v2h4.7v2.4H145v2.5h5.1v2.4h-7.8V13.5z"/>
			<path id="XMLID_1002_" class="st0" d="M151.8,19.3c0-3.4,2.3-6,5.9-6c2.3,0,4.1,1,4.9,2.8l-2.3,1.3c-0.5-1-1.3-1.7-2.7-1.7
				c-1.6,0-3.1,1.4-3.1,3.6c0,2.3,1.5,3.6,3.1,3.6c1.3,0,2.3-0.7,2.8-1.6l2.4,1.1c-0.8,1.8-2.7,3-5.3,3
				C154.1,25.3,151.8,22.7,151.8,19.3z"/>
			<path id="XMLID_1000_" class="st0" d="M166.2,15.9h-2.9v-2.4h8.7v2.4h-3v9.2h-2.7V15.9z"/>
			<path id="XMLID_998_" class="st0" d="M173.3,13.5h2.7v11.6h-2.7V13.5z"/>
			<path id="XMLID_996_" class="st0" d="M177.4,13.5h2.9l2.4,8l2.4-8h2.9L184,25.1h-2.7L177.4,13.5z"/>
			<path id="XMLID_993_" class="st0" d="M188.7,19.3c0-3.4,2.4-6,6-6c3.6,0,6,2.6,6,6c0,3.4-2.5,6-6,6
				C191.1,25.3,188.7,22.7,188.7,19.3z M197.9,19.3c0-2.3-1.6-3.6-3.2-3.6c-1.7,0-3.3,1.3-3.3,3.6s1.6,3.6,3.3,3.6
				C196.3,23,197.9,21.6,197.9,19.3z"/>
		</g>
	</g>
</g>
<g id="XMLID_14_">
</g>
<g id="XMLID_15_">
</g>
<g id="XMLID_16_">
</g>
<g id="XMLID_17_">
</g>
<g id="XMLID_18_">
</g>
<g id="XMLID_19_">
</g>
</svg>
